{
  "accessors": [
    {
      "bufferView": 2,
      "componentType": 5126,
      "count": 1102,
      "max": [
        150.4314422607422,
        488.25,
        150.4314422607422
      ],
      "min": [
        -150.4314422607422,
        0.0,
        -150.4314422607422
      ],
      "type": "VEC3"
    },
    {
      "bufferView": 2,
      "byteOffset": 13224,
      "componentType": 5126,
      "count": 1102,
      "max": [
        1.0,
        1.0,
        1.0
      ],
      "min": [
        -1.0,
        -1.0,
        -1.0
      ],
      "type": "VEC3"
    },
    {
      "bufferView": 1,
      "componentType": 5126,
      "count": 1102,
      "max": [
        9.859505653381348,
        18.887794494628906
      ],
      "min": [
        -11.844995498657227,
        -5.848013877868652
      ],
      "type": "VEC2"
    },
    {
      "bufferView": 1,
      "byteOffset": 8816,
      "componentType": 5126,
      "count": 1102,
      "max": [
        9.859505653381348,
        18.887794494628906
      ],
      "min": [
        -11.844995498657227,
        -5.848013877868652
      ],
      "type": "VEC2"
    },
    {
      "bufferView": 1,
      "byteOffset": 17632,
      "componentType": 5126,
      "count": 1102,
      "max": [
        9.859505653381348,
        18.887794494628906
      ],
      "min": [
        -11.844995498657227,
        -5.848013877868652
      ],
      "type": "VEC2"
    },
    {
      "bufferView": 1,
      "byteOffset": 26448,
      "componentType": 5126,
      "count": 1102,
      "max": [
        9.859505653381348,
        18.887794494628906
      ],
      "min": [
        -11.844995498657227,
        -5.848013877868652
      ],
      "type": "VEC2"
    },
    {
      "bufferView": 1,
      "byteOffset": 35264,
      "componentType": 5126,
      "count": 1102,
      "max": [
        9.859505653381348,
        18.887794494628906
      ],
      "min": [
        -11.844995498657227,
        -5.848013877868652
      ],
      "type": "VEC2"
    },
    {
      "bufferView": 1,
      "byteOffset": 44080,
      "componentType": 5126,
      "count": 1102,
      "max": [
        9.859505653381348,
        18.887794494628906
      ],
      "min": [
        -11.844995498657227,
        -5.848013877868652
      ],
      "type": "VEC2"
    },
    {
      "bufferView": 1,
      "byteOffset": 52896,
      "componentType": 5126,
      "count": 1102,
      "max": [
        9.859505653381348,
        18.887794494628906
      ],
      "min": [
        -11.844995498657227,
        -5.848013877868652
      ],
      "type": "VEC2"
    },
    {
      "bufferView": 1,
      "byteOffset": 61712,
      "componentType": 5126,
      "count": 1102,
      "max": [
        9.859505653381348,
        18.887794494628906
      ],
      "min": [
        -11.844995498657227,
        -5.848013877868652
      ],
      "type": "VEC2"
    },
    {
      "bufferView": 1,
      "byteOffset": 70528,
      "componentType": 5126,
      "count": 1102,
      "max": [
        9.859505653381348,
        18.887794494628906
      ],
      "min": [
        -11.844995498657227,
        -5.848013877868652
      ],
      "type": "VEC2"
    },
    {
      "bufferView": 1,
      "byteOffset": 79344,
      "componentType": 5126,
      "count": 1102,
      "max": [
        9.859505653381348,
        18.887794494628906
      ],
      "min": [
        -11.844995498657227,
        -5.848013877868652
      ],
      "type": "VEC2"
    },
    {
      "bufferView": 0,
      "componentType": 5125,
      "count": 2280,
      "type": "SCALAR"
    },
    {
      "bufferView": 2,
      "byteOffset": 26448,
      "componentType": 5126,
      "count": 192,
      "max": [
        84.87056732177734,
        325.0,
        84.87056732177734
      ],
      "min": [
        -84.87056732177734,
        200.0,
        -84.87056732177734
      ],
      "type": "VEC3"
    },
    {
      "bufferView": 2,
      "byteOffset": 28752,
      "componentType": 5126,
      "count": 192,
      "max": [
        1.0,
        3.4216800112008656e-15,
        1.0
      ],
      "min": [
        -1.0,
        -8.730403527459148e-16,
        -1.0
      ],
      "type": "VEC3"
    },
    {
      "bufferView": 1,
      "byteOffset": 88160,
      "componentType": 5126,
      "count": 192,
      "max": [
        8.740157127380371,
        12.795275688171387
      ],
      "min": [
        -8.740157127380371,
        7.874015808105469
      ],
      "type": "VEC2"
    },
    {
      "bufferView": 1,
      "byteOffset": 89696,
      "componentType": 5126,
      "count": 192,
      "max": [
        8.740157127380371,
        12.795275688171387
      ],
      "min": [
        -8.740157127380371,
        7.874015808105469
      ],
      "type": "VEC2"
    },
    {
      "bufferView": 1,
      "byteOffset": 91232,
      "componentType": 5126,
      "count": 192,
      "max": [
        8.740157127380371,
        12.795275688171387
      ],
      "min": [
        -8.740157127380371,
        7.874015808105469
      ],
      "type": "VEC2"
    },
    {
      "bufferView": 1,
      "byteOffset": 92768,
      "componentType": 5126,
      "count": 192,
      "max": [
        8.740157127380371,
        12.795275688171387
      ],
      "min": [
        -8.740157127380371,
        7.874015808105469
      ],
      "type": "VEC2"
    },
    {
      "bufferView": 1,
      "byteOffset": 94304,
      "componentType": 5126,
      "count": 192,
      "max": [
        8.740157127380371,
        12.795275688171387
      ],
      "min": [
        -8.740157127380371,
        7.874015808105469
      ],
      "type": "VEC2"
    },
    {
      "bufferView": 1,
      "byteOffset": 95840,
      "componentType": 5126,
      "count": 192,
      "max": [
        8.740157127380371,
        12.795275688171387
      ],
      "min": [
        -8.740157127380371,
        7.874015808105469
      ],
      "type": "VEC2"
    },
    {
      "bufferView": 1,
      "byteOffset": 97376,
      "componentType": 5126,
      "count": 192,
      "max": [
        8.740157127380371,
        12.795275688171387
      ],
      "min": [
        -8.740157127380371,
        7.874015808105469
      ],
      "type": "VEC2"
    },
    {
      "bufferView": 1,
      "byteOffset": 98912,
      "componentType": 5126,
      "count": 192,
      "max": [
        8.740157127380371,
        12.795275688171387
      ],
      "min": [
        -8.740157127380371,
        7.874015808105469
      ],
      "type": "VEC2"
    },
    {
      "bufferView": 1,
      "byteOffset": 100448,
      "componentType": 5126,
      "count": 192,
      "max": [
        8.740157127380371,
        12.795275688171387
      ],
      "min": [
        -8.740157127380371,
        7.874015808105469
      ],
      "type": "VEC2"
    },
    {
      "bufferView": 1,
      "byteOffset": 101984,
      "componentType": 5126,
      "count": 192,
      "max": [
        8.740157127380371,
        12.795275688171387
      ],
      "min": [
        -8.740157127380371,
        7.874015808105469
      ],
      "type": "VEC2"
    },
    {
      "bufferView": 0,
      "byteOffset": 9120,
      "componentType": 5125,
      "count": 288,
      "type": "SCALAR"
    },
    {
      "bufferView": 2,
      "byteOffset": 31056,
      "componentType": 5126,
      "count": 120,
      "max": [
        250.0,
        460.0,
        250.0
      ],
      "min": [
        -250.0,
        435.0,
        -250.0
      ],
      "type": "VEC3"
    },
    {
      "bufferView": 2,
      "byteOffset": 32496,
      "componentType": 5126,
      "count": 120,
      "max": [
        1.0,
        1.0,
        1.0
      ],
      "min": [
        -1.0,
        -1.0,
        -1.0
      ],
      "type": "VEC3"
    },
    {
      "bufferView": 1,
      "byteOffset": 103520,
      "componentType": 5126,
      "count": 120,
      "max": [
        8.069358825683594,
        7.874015808105469
      ],
      "min": [
        -8.069358825683594,
        -2.779813051223755
      ],
      "type": "VEC2"
    },
    {
      "bufferView": 1,
      "byteOffset": 104480,
      "componentType": 5126,
      "count": 120,
      "max": [
        8.069358825683594,
        7.874015808105469
      ],
      "min": [
        -8.069358825683594,
        -2.779813051223755
      ],
      "type": "VEC2"
    },
    {
      "bufferView": 1,
      "byteOffset": 105440,
      "componentType": 5126,
      "count": 120,
      "max": [
        8.069358825683594,
        7.874015808105469
      ],
      "min": [
        -8.069358825683594,
        -2.779813051223755
      ],
      "type": "VEC2"
    },
    {
      "bufferView": 1,
      "byteOffset": 106400,
      "componentType": 5126,
      "count": 120,
      "max": [
        8.069358825683594,
        7.874015808105469
      ],
      "min": [
        -8.069358825683594,
        -2.779813051223755
      ],
      "type": "VEC2"
    },
    {
      "bufferView": 1,
      "byteOffset": 107360,
      "componentType": 5126,
      "count": 120,
      "max": [
        8.069358825683594,
        7.874015808105469
      ],
      "min": [
        -8.069358825683594,
        -2.779813051223755
      ],
      "type": "VEC2"
    },
    {
      "bufferView": 1,
      "byteOffset": 108320,
      "componentType": 5126,
      "count": 120,
      "max": [
        8.069358825683594,
        7.874015808105469
      ],
      "min": [
        -8.069358825683594,
        -2.779813051223755
      ],
      "type": "VEC2"
    },
    {
      "bufferView": 1,
      "byteOffset": 109280,
      "componentType": 5126,
      "count": 120,
      "max": [
        8.069358825683594,
        7.874015808105469
      ],
      "min": [
        -8.069358825683594,
        -2.779813051223755
      ],
      "type": "VEC2"
    },
    {
      "bufferView": 1,
      "byteOffset": 110240,
      "componentType": 5126,
      "count": 120,
      "max": [
        8.069358825683594,
        7.874015808105469
      ],
      "min": [
        -8.069358825683594,
        -2.779813051223755
      ],
      "type": "VEC2"
    },
    {
      "bufferView": 1,
      "byteOffset": 111200,
      "componentType": 5126,
      "count": 120,
      "max": [
        8.069358825683594,
        7.874015808105469
      ],
      "min": [
        -8.069358825683594,
        -2.779813051223755
      ],
      "type": "VEC2"
    },
    {
      "bufferView": 1,
      "byteOffset": 112160,
      "componentType": 5126,
      "count": 120,
      "max": [
        8.069358825683594,
        7.874015808105469
      ],
      "min": [
        -8.069358825683594,
        -2.779813051223755
      ],
      "type": "VEC2"
    },
    {
      "bufferView": 0,
      "byteOffset": 10272,
      "componentType": 5125,
      "count": 204,
      "type": "SCALAR"
    },
    {
      "bufferView": 2,
      "byteOffset": 33936,
      "componentType": 5126,
      "count": 1204,
      "max": [
        776.4717407226563,
        475.0,
        776.4717407226563
      ],
      "min": [
        -776.4717407226563,
        460.0,
        -776.4717407226563
      ],
      "type": "VEC3"
    },
    {
      "bufferView": 2,
      "byteOffset": 48384,
      "componentType": 5126,
      "count": 1204,
      "max": [
        1.0,
        1.0,
        1.0
      ],
      "min": [
        -1.0,
        -1.0,
        -1.0
      ],
      "type": "VEC3"
    },
    {
      "bufferView": 1,
      "byteOffset": 113120,
      "componentType": 5126,
      "count": 1204,
      "max": [
        61.13950729370117,
        72.11320495605469
      ],
      "min": [
        -60.54385757446289,
        -13.032175064086914
      ],
      "type": "VEC2"
    },
    {
      "bufferView": 1,
      "byteOffset": 122752,
      "componentType": 5126,
      "count": 1204,
      "max": [
        61.13950729370117,
        72.11320495605469
      ],
      "min": [
        -60.54385757446289,
        -13.032175064086914
      ],
      "type": "VEC2"
    },
    {
      "bufferView": 1,
      "byteOffset": 132384,
      "componentType": 5126,
      "count": 1204,
      "max": [
        61.13950729370117,
        72.11320495605469
      ],
      "min": [
        -60.54385757446289,
        -13.032175064086914
      ],
      "type": "VEC2"
    },
    {
      "bufferView": 1,
      "byteOffset": 142016,
      "componentType": 5126,
      "count": 1204,
      "max": [
        61.13950729370117,
        72.11320495605469
      ],
      "min": [
        -60.54385757446289,
        -13.032175064086914
      ],
      "type": "VEC2"
    },
    {
      "bufferView": 1,
      "byteOffset": 151648,
      "componentType": 5126,
      "count": 1204,
      "max": [
        61.13950729370117,
        72.11320495605469
      ],
      "min": [
        -60.54385757446289,
        -13.032175064086914
      ],
      "type": "VEC2"
    },
    {
      "bufferView": 1,
      "byteOffset": 161280,
      "componentType": 5126,
      "count": 1204,
      "max": [
        61.13950729370117,
        72.11320495605469
      ],
      "min": [
        -60.54385757446289,
        -13.032175064086914
      ],
      "type": "VEC2"
    },
    {
      "bufferView": 1,
      "byteOffset": 170912,
      "componentType": 5126,
      "count": 1204,
      "max": [
        61.13950729370117,
        72.11320495605469
      ],
      "min": [
        -60.54385757446289,
        -13.032175064086914
      ],
      "type": "VEC2"
    },
    {
      "bufferView": 1,
      "byteOffset": 180544,
      "componentType": 5126,
      "count": 1204,
      "max": [
        61.13950729370117,
        72.11320495605469
      ],
      "min": [
        -60.54385757446289,
        -13.032175064086914
      ],
      "type": "VEC2"
    },
    {
      "bufferView": 1,
      "byteOffset": 190176,
      "componentType": 5126,
      "count": 1204,
      "max": [
        61.13950729370117,
        72.11320495605469
      ],
      "min": [
        -60.54385757446289,
        -13.032175064086914
      ],
      "type": "VEC2"
    },
    {
      "bufferView": 1,
      "byteOffset": 199808,
      "componentType": 5126,
      "count": 1204,
      "max": [
        61.13950729370117,
        72.11320495605469
      ],
      "min": [
        -60.54385757446289,
        -13.032175064086914
      ],
      "type": "VEC2"
    },
    {
      "bufferView": 0,
      "byteOffset": 11088,
      "componentType": 5125,
      "count": 2448,
      "type": "SCALAR"
    }
  ],
  "asset": {
    "extras": {
      "author": "Natjo (https://sketchfab.com/Natjo)",
      "license": "CC-BY-NC-SA-4.0 (http://creativecommons.org/licenses/by-nc-sa/4.0/)",
      "source": "https://sketchfab.com/3d-models/avali-circle-table-6e9d31b820fa44cc8ce940c114b8251f",
      "title": "Avali Circle Table"
    },
    "generator": "Sketchfab-12.66.0",
    "version": "2.0"
  },
  "bufferViews": [
    {
      "buffer": 0,
      "byteLength": 20880,
      "name": "floatBufferViews",
      "target": 34963
    },
    {
      "buffer": 0,
      "byteLength": 209440,
      "byteOffset": 20880,
      "byteStride": 8,
      "name": "floatBufferViews",
      "target": 34962
    },
    {
      "buffer": 0,
      "byteLength": 62832,
      "byteOffset": 230320,
      "byteStride": 12,
      "name": "floatBufferViews",
      "target": 34962
    }
  ],
  "buffers": [
    {
      "byteLength": 293152,
      "uri": "scene.bin"
    }
  ],
  "materials": [
    {
      "doubleSided": true,
      "name": "Metal_Silver_1",
      "pbrMetallicRoughness": {
        "baseColorFactor": [
          0.913725,
          0.909804,
          0.929412,
          1.0
        ],
        "metallicFactor": 0.0,
        "roughnessFactor": 0.9302134966
      }
    },
    {
      "doubleSided": true,
      "emissiveFactor": [
        1.0,
        0.19413198274092824,
        0.0
      ],
      "name": "Color_C04",
      "pbrMetallicRoughness": {
        "baseColorFactor": [
          1.0,
          0.33149272755054604,
          0.0,
          1.0
        ],
        "metallicFactor": 0.0,
        "roughnessFactor": 0.9302134966
      }
    },
    {
      "alphaMode": "BLEND",
      "doubleSided": true,
      "name": "Color_C05",
      "pbrMetallicRoughness": {
        "baseColorFactor": [
          1.0,
          0.4980390000000002,
          0.0,
          0.2578125
        ],
        "metallicFactor": 0.0,
        "roughnessFactor": 0.9302134966
      }
    }
  ],
  "meshes": [
    {
      "name": "Mesh1__Metal_Silver_1_0",
      "primitives": [
        {
          "attributes": {
            "NORMAL": 1,
            "POSITION": 0,
            "TEXCOORD_0": 2,
            "TEXCOORD_1": 3,
            "TEXCOORD_2": 4,
            "TEXCOORD_3": 5,
            "TEXCOORD_4": 6,
            "TEXCOORD_5": 7,
            "TEXCOORD_6": 8,
            "TEXCOORD_7": 9,
            "TEXCOORD_8": 10,
            "TEXCOORD_9": 11
          },
          "indices": 12,
          "material": 0,
          "mode": 4
        }
      ]
    },
    {
      "name": "Mesh1_Color_C04_0",
      "primitives": [
        {
          "attributes": {
            "NORMAL": 14,
            "POSITION": 13,
            "TEXCOORD_0": 15,
            "TEXCOORD_1": 16,
            "TEXCOORD_2": 17,
            "TEXCOORD_3": 18,
            "TEXCOORD_4": 19,
            "TEXCOORD_5": 20,
            "TEXCOORD_6": 21,
            "TEXCOORD_7": 22,
            "TEXCOORD_8": 23,
            "TEXCOORD_9": 24
          },
          "indices": 25,
          "material": 1,
          "mode": 4
        }
      ]
    },
    {
      "name": "Mesh2__Metal_Silver_1_0",
      "primitives": [
        {
          "attributes": {
            "NORMAL": 27,
            "POSITION": 26,
            "TEXCOORD_0": 28,
            "TEXCOORD_1": 29,
            "TEXCOORD_2": 30,
            "TEXCOORD_3": 31,
            "TEXCOORD_4": 32,
            "TEXCOORD_5": 33,
            "TEXCOORD_6": 34,
            "TEXCOORD_7": 35,
            "TEXCOORD_8": 36,
            "TEXCOORD_9": 37
          },
          "indices": 38,
          "material": 0,
          "mode": 4
        }
      ]
    },
    {
      "name": "Mesh3_Color_C05_0",
      "primitives": [
        {
          "attributes": {
            "NORMAL": 40,
            "POSITION": 39,
            "TEXCOORD_0": 41,
            "TEXCOORD_1": 42,
            "TEXCOORD_2": 43,
            "TEXCOORD_3": 44,
            "TEXCOORD_4": 45,
            "TEXCOORD_5": 46,
            "TEXCOORD_6": 47,
            "TEXCOORD_7": 48,
            "TEXCOORD_8": 49,
            "TEXCOORD_9": 50
          },
          "indices": 51,
          "material": 2,
          "mode": 4
        }
      ]
    }
  ],
  "nodes": [
    {
      "children": [
        1
      ],
      "matrix": [
        1.0,
        0.0,
        0.0,
        0.0,
        0.0,
        2.220446049250313e-16,
        -1.0,
        0.0,
        0.0,
        1.0,
        2.220446049250313e-16,
        0.0,
        0.0,
        0.0,
        0.0,
        1.0
      ],
      "name": "Sketchfab_model"
    },
    {
      "children": [
        2
      ],
      "matrix": [
        1.0,
        0.0,
        0.0,
        0.0,
        0.0,
        0.0,
        1.0,
        0.0,
        0.0,
        -1.0,
        0.0,
        0.0,
        0.0,
        0.0,
        0.0,
        1.0
      ],
      "name": "Tableround.fbx"
    },
    {
      "children": [
        3
      ],
      "name": "RootNode"
    },
    {
      "children": [
        4,
        8,
        11
      ],
      "name": "Model"
    },
    {
      "children": [
        5
      ],
      "name": "Group1"
    },
    {
      "children": [
        6,
        7
      ],
      "name": "Mesh1"
    },
    {
      "mesh": 0,
      "name": "Mesh1__Metal_Silver_1_0"
    },
    {
      "mesh": 1,
      "name": "Mesh1_Color_C04_0"
    },
    {
      "children": [
        9
      ],
      "name": "Group2"
    },
    {
      "children": [
        10
      ],
      "name": "Mesh2"
    },
    {
      "mesh": 2,
      "name": "Mesh2__Metal_Silver_1_0"
    },
    {
      "children": [
        12
      ],
      "name": "Group3"
    },
    {
      "children": [
        13
      ],
      "name": "Mesh3"
    },
    {
      "mesh": 3,
      "name": "Mesh3_Color_C05_0"
    }
  ],
  "scene": 0,
  "scenes": [
    {
      "name": "Sketchfab_Scene",
      "nodes": [
        0
      ]
    }
  ]
}
