{
  "accessors": [
    {
      "bufferView": 2,
      "componentType": 5126,
      "count": 1067,
      "max": [
        0.3467797338962555,
        0.3467797040939331,
        0.9700579643249512
      ],
      "min": [
        -0.3467797338962555,
        -0.3467797040939331,
        0.00025588274002075195
      ],
      "type": "VEC3"
    },
    {
      "bufferView": 2,
      "byteOffset": 12804,
      "componentType": 5126,
      "count": 1067,
      "max": [
        1.0,
        1.0,
        1.0
      ],
      "min": [
        -1.0,
        -1.0,
        -1.0
      ],
      "type": "VEC3"
    },
    {
      "bufferView": 3,
      "componentType": 5126,
      "count": 1067,
      "max": [
        1.0,
        1.0,
        1.0,
        1.0
      ],
      "min": [
        -1.0,
        -1.0,
        -1.0,
        1.0
      ],
      "type": "VEC4"
    },
    {
      "bufferView": 1,
      "componentType": 5126,
      "count": 1067,
      "max": [
        0.9979500770568848,
        0.9974434971809387
      ],
      "min": [
        0.001967310905456543,
        0.0019476544111967087
      ],
      "type": "VEC2"
    },
    {
      "bufferView": 1,
      "byteOffset": 8536,
      "componentType": 5126,
      "count": 1067,
      "max": [
        0.9979500770568848,
        0.9974434971809387
      ],
      "min": [
        0.001967310905456543,
        0.0019476544111967087
      ],
      "type": "VEC2"
    },
    {
      "bufferView": 1,
      "byteOffset": 17072,
      "componentType": 5126,
      "count": 1067,
      "max": [
        0.9979500770568848,
        0.9974434971809387
      ],
      "min": [
        0.001967310905456543,
        0.0019476544111967087
      ],
      "type": "VEC2"
    },
    {
      "bufferView": 0,
      "componentType": 5125,
      "count": 4725,
      "type": "SCALAR"
    }
  ],
  "asset": {
    "extras": {
      "author": "Oxicid (https://sketchfab.com/Oxicid)",
      "license": "CC-BY-4.0 (http://creativecommons.org/licenses/by/4.0/)",
      "source": "https://sketchfab.com/3d-models/circle-desk-001-3b0033ee32d0418eab71ace6a510a110",
      "title": "Circle_Desk_001"
    },
    "generator": "Sketchfab-14.8.0",
    "version": "2.0"
  },
  "bufferViews": [
    {
      "buffer": 0,
      "byteLength": 18900,
      "name": "floatBufferViews",
      "target": 34963
    },
    {
      "buffer": 0,
      "byteLength": 25608,
      "byteOffset": 18900,
      "byteStride": 8,
      "name": "floatBufferViews",
      "target": 34962
    },
    {
      "buffer": 0,
      "byteLength": 25608,
      "byteOffset": 44508,
      "byteStride": 12,
      "name": "floatBufferViews",
      "target": 34962
    },
    {
      "buffer": 0,
      "byteLength": 17072,
      "byteOffset": 70116,
      "byteStride": 16,
      "name": "floatBufferViews",
      "target": 34962
    }
  ],
  "buffers": [
    {
      "byteLength": 87188,
      "uri": "scene.bin"
    }
  ],
  "extensionsUsed": [
    "KHR_materials_clearcoat"
  ],
  "images": [
    {
      "uri": "textures/Circle_Desk_001_dirt_baseColor.png"
    },
    {
      "uri": "textures/Circle_Desk_001_dirt_metallicRoughness.png"
    },
    {
      "uri": "textures/Circle_Desk_001_dirt_normal.png"
    }
  ],
  "materials": [
    {
      "extensions": {
        "KHR_materials_clearcoat": {
          "clearcoatFactor": 0.026030741355513805,
          "clearcoatRoughnessFactor": 0.04
        }
      },
      "name": "Circle_Desk_001_dirt",
      "normalTexture": {
        "index": 2
      },
      "occlusionTexture": {
        "index": 1
      },
      "pbrMetallicRoughness": {
        "baseColorTexture": {
          "index": 0
        },
        "metallicFactor": 0.0,
        "metallicRoughnessTexture": {
          "index": 1
        }
      }
    }
  ],
  "meshes": [
    {
      "name": "Circle_Desk_001_low_Circle_Desk_001_dirt_0",
      "primitives": [
        {
          "attributes": {
            "NORMAL": 1,
            "POSITION": 0,
            "TANGENT": 2,
            "TEXCOORD_0": 3,
            "TEXCOORD_1": 4,
            "TEXCOORD_2": 5
          },
          "indices": 6,
          "material": 0,
          "mode": 4
        }
      ]
    }
  ],
  "nodes": [
    {
      "children": [
        1
      ],
      "matrix": [
        1.0,
        0.0,
        0.0,
        0.0,
        0.0,
        2.220446049250313e-16,
        -1.0,
        0.0,
        0.0,
        1.0,
        2.220446049250313e-16,
        0.0,
        0.0,
        0.0,
        0.0,
        1.0
      ],
      "name": "Sketchfab_model"
    },
    {
      "children": [
        2
      ],
      "matrix": [
        0.009999999776482582,
        0.0,
        0.0,
        0.0,
        0.0,
        0.0,
        0.009999999776482582,
        0.0,
        0.0,
        -0.009999999776482582,
        0.0,
        0.0,
        0.0,
        0.0,
        0.0,
        1.0
      ],
      "name": "1cb3400e6b8e485bad4041c980ab6050.fbx"
    },
    {
      "children": [
        3
      ],
      "name": "RootNode"
    },
    {
      "children": [
        4
      ],
      "matrix": [
        -87.98692340914738,
        8.326672684688674e-15,
        -47.521587820619295,
        0.0,
        -47.52158782061916,
        7.549789982075339e-06,
        87.98692340914714,
        0.0,
        3.5877800785844016e-06,
        99.99999999999972,
        -6.642827909963955e-06,
        0.0,
        0.0,
        -0.10384321212768555,
        1.7881393432617188e-05,
        1.0
      ],
      "name": "Circle_Desk_001_low"
    },
    {
      "mesh": 0,
      "name": "Circle_Desk_001_low_Circle_Desk_001_dirt_0"
    }
  ],
  "samplers": [
    {
      "magFilter": 9729,
      "minFilter": 9987,
      "wrapS": 10497,
      "wrapT": 10497
    }
  ],
  "scene": 0,
  "scenes": [
    {
      "name": "Sketchfab_Scene",
      "nodes": [
        0
      ]
    }
  ],
  "textures": [
    {
      "sampler": 0,
      "source": 0
    },
    {
      "sampler": 0,
      "source": 1
    },
    {
      "sampler": 0,
      "source": 2
    }
  ]
}
