{
  "accessors": [
    {
      "bufferView": 2,
      "componentType": 5126,
      "count": 2834,
      "max": [
        1.0327848196029663,
        1.0327848196029663,
        0.08331994712352753
      ],
      "min": [
        -1.0327848196029663,
        -1.0327849388122559,
        -0.1678878217935562
      ],
      "type": "VEC3"
    },
    {
      "bufferView": 2,
      "byteOffset": 34008,
      "componentType": 5126,
      "count": 2834,
      "max": [
        0.9589934349060059,
        0.9589934349060059,
        1.0
      ],
      "min": [
        -0.9589934349060059,
        -0.9589934349060059,
        -1.0
      ],
      "type": "VEC3"
    },
    {
      "bufferView": 1,
      "componentType": 5126,
      "count": 2834,
      "max": [
        0.5059990286827087,
        0.9999001026153564
      ],
      "min": [
        9.996003791457042e-05,
        9.996003791457042e-05
      ],
      "type": "VEC2"
    },
    {
      "bufferView": 0,
      "componentType": 5125,
      "count": 16704,
      "type": "SCALAR"
    },
    {
      "bufferView": 2,
      "byteOffset": 68016,
      "componentType": 5126,
      "count": 3866,
      "max": [
        0.8548014760017395,
        0.5370060801506042,
        0.5952268242835999
      ],
      "min": [
        -0.5851165056228638,
        -0.5370078682899475,
        -0.6083958148956299
      ],
      "type": "VEC3"
    },
    {
      "bufferView": 2,
      "byteOffset": 114408,
      "componentType": 5126,
      "count": 3866,
      "max": [
        0.9996899366378784,
        0.9999704360961914,
        1.0
      ],
      "min": [
        -1.0,
        -0.9999717473983765,
        -1.0
      ],
      "type": "VEC3"
    },
    {
      "bufferView": 1,
      "byteOffset": 22672,
      "componentType": 5126,
      "count": 3866,
      "max": [
        0.8869326114654541,
        0.9997698068618774
      ],
      "min": [
        0.0002302515640622005,
        0.0002302515640622005
      ],
      "type": "VEC2"
    },
    {
      "bufferView": 0,
      "byteOffset": 66816,
      "componentType": 5125,
      "count": 20952,
      "type": "SCALAR"
    },
    {
      "bufferView": 2,
      "byteOffset": 160800,
      "componentType": 5126,
      "count": 1658,
      "max": [
        0.188198983669281,
        0.7384698987007141,
        0.07859804481267929
      ],
      "min": [
        -0.18821798264980316,
        -1.0417587757110596,
        -0.0783897414803505
      ],
      "type": "VEC3"
    },
    {
      "bufferView": 2,
      "byteOffset": 180696,
      "componentType": 5126,
      "count": 1658,
      "max": [
        0.9999980926513672,
        0.8608777523040771,
        0.9999995231628418
      ],
      "min": [
        -0.9999980926513672,
        -0.9999544620513916,
        -0.9999990463256836
      ],
      "type": "VEC3"
    },
    {
      "bufferView": 1,
      "byteOffset": 53600,
      "componentType": 5126,
      "count": 1658,
      "max": [
        0.42118510603904724,
        0.999908983707428
      ],
      "min": [
        9.101499017560855e-05,
        9.101499017560855e-05
      ],
      "type": "VEC2"
    },
    {
      "bufferView": 0,
      "byteOffset": 150624,
      "componentType": 5125,
      "count": 9216,
      "type": "SCALAR"
    },
    {
      "bufferView": 2,
      "byteOffset": 200592,
      "componentType": 5126,
      "count": 481,
      "max": [
        0.5149657726287842,
        0.5149657726287842,
        5.471706998605441e-08
      ],
      "min": [
        -0.5149657726287842,
        -0.514965832233429,
        5.4717027353490266e-08
      ],
      "type": "VEC3"
    },
    {
      "bufferView": 2,
      "byteOffset": 206364,
      "componentType": 5126,
      "count": 481,
      "max": [
        0.0,
        0.0,
        1.0
      ],
      "min": [
        0.0,
        0.0,
        1.0
      ],
      "type": "VEC3"
    },
    {
      "bufferView": 3,
      "componentType": 5126,
      "count": 481,
      "max": [
        0.19526691734790802,
        -0.9807501435279846,
        0.0,
        1.0
      ],
      "min": [
        0.1952609419822693,
        -0.9807513952255249,
        0.0,
        1.0
      ],
      "type": "VEC4"
    },
    {
      "bufferView": 1,
      "byteOffset": 66864,
      "componentType": 5126,
      "count": 481,
      "max": [
        0.9998999238014221,
        0.9999000430107117
      ],
      "min": [
        9.998000314226374e-05,
        9.998000314226374e-05
      ],
      "type": "VEC2"
    },
    {
      "bufferView": 0,
      "byteOffset": 187488,
      "componentType": 5125,
      "count": 2736,
      "type": "SCALAR"
    },
    {
      "bufferView": 2,
      "byteOffset": 212136,
      "componentType": 5126,
      "count": 240,
      "max": [
        0.37574660778045654,
        0.37574660778045654,
        0.3123825788497925
      ],
      "min": [
        -0.37574657797813416,
        -0.37574657797813416,
        -0.5113233327865601
      ],
      "type": "VEC3"
    },
    {
      "bufferView": 2,
      "byteOffset": 215016,
      "componentType": 5126,
      "count": 240,
      "max": [
        0.9824026226997375,
        0.9824026226997375,
        1.0
      ],
      "min": [
        -0.9824026226997375,
        -0.9824026226997375,
        0.18677552044391632
      ],
      "type": "VEC3"
    },
    {
      "bufferView": 1,
      "byteOffset": 70712,
      "componentType": 5126,
      "count": 240,
      "max": [
        0.9998969435691833,
        0.5309564471244812
      ],
      "min": [
        0.00010301735164830461,
        0.00010301735164830461
      ],
      "type": "VEC2"
    },
    {
      "bufferView": 0,
      "byteOffset": 198432,
      "componentType": 5125,
      "count": 1248,
      "type": "SCALAR"
    }
  ],
  "asset": {
    "extras": {
      "author": "Azamuki (https://sketchfab.com/Azamuki)",
      "license": "CC-BY-4.0 (http://creativecommons.org/licenses/by/4.0/)",
      "source": "https://sketchfab.com/3d-models/cup-of-coffee-bbabe4090860470d86cb34e5e1c185ae",
      "title": "Cup of Coffee"
    },
    "generator": "Sketchfab-12.66.0",
    "version": "2.0"
  },
  "bufferViews": [
    {
      "buffer": 0,
      "byteLength": 203424,
      "name": "floatBufferViews",
      "target": 34963
    },
    {
      "buffer": 0,
      "byteLength": 72632,
      "byteOffset": 203424,
      "byteStride": 8,
      "name": "floatBufferViews",
      "target": 34962
    },
    {
      "buffer": 0,
      "byteLength": 217896,
      "byteOffset": 276056,
      "byteStride": 12,
      "name": "floatBufferViews",
      "target": 34962
    },
    {
      "buffer": 0,
      "byteLength": 7696,
      "byteOffset": 493952,
      "byteStride": 16,
      "name": "floatBufferViews",
      "target": 34962
    }
  ],
  "buffers": [
    {
      "byteLength": 501648,
      "uri": "scene.bin"
    }
  ],
  "images": [
    {
      "uri": "textures/Plate_baseColor.png"
    },
    {
      "uri": "textures/Plate_metallicRoughness.png"
    },
    {
      "uri": "textures/material_baseColor.png"
    },
    {
      "uri": "textures/material_metallicRoughness.png"
    },
    {
      "uri": "textures/Teapoon_baseColor.png"
    },
    {
      "uri": "textures/Teapoon_metallicRoughness.png"
    },
    {
      "uri": "textures/Coffee_baseColor.png"
    },
    {
      "uri": "textures/Coffee_metallicRoughness.png"
    },
    {
      "uri": "textures/Coffee_normal.png"
    },
    {
      "uri": "textures/Smoke_baseColor.png"
    }
  ],
  "materials": [
    {
      "doubleSided": true,
      "name": "Plate",
      "pbrMetallicRoughness": {
        "baseColorTexture": {
          "index": 0
        },
        "metallicFactor": 0.0,
        "metallicRoughnessTexture": {
          "index": 1
        }
      }
    },
    {
      "doubleSided": true,
      "name": "material",
      "pbrMetallicRoughness": {
        "baseColorTexture": {
          "index": 2
        },
        "metallicFactor": 0.0,
        "metallicRoughnessTexture": {
          "index": 3
        }
      }
    },
    {
      "doubleSided": true,
      "name": "Teapoon",
      "pbrMetallicRoughness": {
        "baseColorTexture": {
          "index": 4
        },
        "metallicRoughnessTexture": {
          "index": 5
        }
      }
    },
    {
      "doubleSided": true,
      "name": "Coffee",
      "normalTexture": {
        "index": 8
      },
      "pbrMetallicRoughness": {
        "baseColorTexture": {
          "index": 6
        },
        "metallicFactor": 0.0,
        "metallicRoughnessTexture": {
          "index": 7
        }
      }
    },
    {
      "alphaMode": "BLEND",
      "doubleSided": true,
      "name": "Smoke",
      "pbrMetallicRoughness": {
        "baseColorTexture": {
          "index": 9
        },
        "metallicFactor": 0.0
      }
    }
  ],
  "meshes": [
    {
      "name": "Plate_Plate_0",
      "primitives": [
        {
          "attributes": {
            "NORMAL": 1,
            "POSITION": 0,
            "TEXCOORD_0": 2
          },
          "indices": 3,
          "material": 0,
          "mode": 4
        }
      ]
    },
    {
      "name": "Cup_Cup_0",
      "primitives": [
        {
          "attributes": {
            "NORMAL": 5,
            "POSITION": 4,
            "TEXCOORD_0": 6
          },
          "indices": 7,
          "material": 1,
          "mode": 4
        }
      ]
    },
    {
      "name": "Teaspoon_Teapoon_0",
      "primitives": [
        {
          "attributes": {
            "NORMAL": 9,
            "POSITION": 8,
            "TEXCOORD_0": 10
          },
          "indices": 11,
          "material": 2,
          "mode": 4
        }
      ]
    },
    {
      "name": "Coffee_Coffee_0",
      "primitives": [
        {
          "attributes": {
            "NORMAL": 13,
            "POSITION": 12,
            "TANGENT": 14,
            "TEXCOORD_0": 15
          },
          "indices": 16,
          "material": 3,
          "mode": 4
        }
      ]
    },
    {
      "name": "Smoke_Smoke_0",
      "primitives": [
        {
          "attributes": {
            "NORMAL": 18,
            "POSITION": 17,
            "TEXCOORD_0": 19
          },
          "indices": 20,
          "material": 4,
          "mode": 4
        }
      ]
    }
  ],
  "nodes": [
    {
      "children": [
        1
      ],
      "matrix": [
        1.0,
        0.0,
        0.0,
        0.0,
        0.0,
        2.220446049250313e-16,
        -1.0,
        0.0,
        0.0,
        1.0,
        2.220446049250313e-16,
        0.0,
        0.0,
        0.0,
        0.0,
        1.0
      ],
      "name": "Sketchfab_model"
    },
    {
      "children": [
        2
      ],
      "matrix": [
        1.0,
        0.0,
        0.0,
        0.0,
        0.0,
        0.0,
        1.0,
        0.0,
        0.0,
        -1.0,
        0.0,
        0.0,
        0.0,
        0.0,
        0.0,
        1.0
      ],
      "name": "cup_of_coffee_original.fbx"
    },
    {
      "children": [
        3,
        5,
        7,
        9,
        11,
        13,
        16,
        19,
        22,
        25,
        28
      ],
      "name": "RootNode"
    },
    {
      "children": [
        4
      ],
      "matrix": [
        100.0,
        0.0,
        0.0,
        0.0,
        0.0,
        -1.629206793918314e-05,
        -99.99999999999868,
        0.0,
        0.0,
        99.99999999999868,
        -1.629206793918314e-05,
        0.0,
        2.6827908641280374e-06,
        17.37998390197754,
        -1.1893483133462723e-05,
        1.0
      ],
      "name": "Plate"
    },
    {
      "mesh": 0,
      "name": "Plate_Plate_0"
    },
    {
      "children": [
        6
      ],
      "matrix": [
        99.99999999997875,
        0.0,
        6.516827966151588e-05,
        0.0,
        6.516827966151501e-05,
        -1.629206793918314e-05,
        -99.99999999997745,
        0.0,
        1.0617260404688505e-11,
        99.99999999999868,
        -1.629206793918314e-05,
        0.0,
        4.245602607727051,
        71.401611328125,
        -9.317827789345756e-05,
        1.0
      ],
      "name": "Cup"
    },
    {
      "mesh": 1,
      "name": "Cup_Cup_0"
    },
    {
      "children": [
        8
      ],
      "matrix": [
        89.67499282574927,
        -0.45047512879683754,
        -44.25148878556648,
        0.0,
        -44.21349729990092,
        3.353480673624376,
        -89.6321416897046,
        0.0,
        1.8877354859123008,
        99.94273980415448,
        2.808062530340061,
        0.0,
        -64.40389251708984,
        29.631099700927734,
        23.879741668701172,
        1.0
      ],
      "name": "Teaspoon"
    },
    {
      "mesh": 2,
      "name": "Teaspoon_Teapoon_0"
    },
    {
      "children": [
        10
      ],
      "matrix": [
        -99.99999999999241,
        1.2246465878873718e-14,
        -3.894143777553012e-05,
        0.0,
        -3.894143777553e-05,
        7.549789982075339e-06,
        99.99999999999213,
        0.0,
        2.9522432265841658e-12,
        99.9999999999997,
        -7.549789970973109e-06,
        0.0,
        0.6854812502861023,
        127.07441711425781,
        2.7201735065318644e-05,
        1.0
      ],
      "name": "Coffee"
    },
    {
      "mesh": 3,
      "name": "Coffee_Coffee_0"
    },
    {
      "children": [
        12
      ],
      "matrix": [
        100.0,
        0.0,
        0.0,
        0.0,
        0.0,
        -1.629206793918314e-05,
        -99.99999999999868,
        0.0,
        0.0,
        99.99999999999868,
        -1.629206793918314e-05,
        0.0,
        0.0,
        177.68174743652344,
        0.0,
        1.0
      ],
      "name": "Smoke"
    },
    {
      "mesh": 4,
      "name": "Smoke_Smoke_0"
    },
    {
      "children": [
        14
      ],
      "matrix": [
        100.0,
        0.0,
        0.0,
        0.0,
        0.0,
        99.99999999999972,
        -7.5497901264043296e-06,
        0.0,
        0.0,
        7.5497901264043296e-06,
        99.99999999999972,
        0.0,
        0.0,
        500.0,
        0.0,
        1.0
      ],
      "name": "Sun"
    },
    {
      "children": [
        15
      ],
      "matrix": [
        1.0,
        0.0,
        0.0,
        0.0,
        0.0,
        2.220446049250313e-16,
        1.0,
        0.0,
        0.0,
        -1.0,
        2.220446049250313e-16,
        0.0,
        0.0,
        0.0,
        0.0,
        1.0
      ],
      "name": "Object_14"
    },
    {
      "name": "Object_15"
    },
    {
      "children": [
        17
      ],
      "matrix": [
        -99.99999999999243,
        3.8941437731121185e-05,
        1.1746023567042827e-12,
        0.0,
        -3.894143773111928e-05,
        -99.9999999999865,
        -3.442155787070012e-05,
        0.0,
        -1.2229647167596404e-11,
        -3.442155787069797e-05,
        99.99999999999407,
        0.0,
        0.0,
        500.0,
        0.0,
        1.0
      ],
      "name": "Sun.001"
    },
    {
      "children": [
        18
      ],
      "matrix": [
        1.0,
        0.0,
        0.0,
        0.0,
        0.0,
        2.220446049250313e-16,
        1.0,
        0.0,
        0.0,
        -1.0,
        2.220446049250313e-16,
        0.0,
        0.0,
        0.0,
        0.0,
        1.0
      ],
      "name": "Object_17"
    },
    {
      "name": "Object_18"
    },
    {
      "children": [
        20
      ],
      "matrix": [
        70.7106765732234,
        -70.71067966408543,
        -9.500604392087543e-06,
        0.0,
        70.71067966408452,
        70.71067657322402,
        -1.1485070672279031e-05,
        0.0,
        1.4839113176459588e-05,
        1.4032292394403922e-06,
        99.99999999999889,
        0.0,
        0.0,
        500.0,
        0.0,
        1.0
      ],
      "name": "Sun.002"
    },
    {
      "children": [
        21
      ],
      "matrix": [
        1.0,
        0.0,
        0.0,
        0.0,
        0.0,
        2.220446049250313e-16,
        1.0,
        0.0,
        0.0,
        -1.0,
        2.220446049250313e-16,
        0.0,
        0.0,
        0.0,
        0.0,
        1.0
      ],
      "name": "Object_20"
    },
    {
      "name": "Object_21"
    },
    {
      "children": [
        23
      ],
      "matrix": [
        5.338507954432631e-06,
        -70.71068196802003,
        70.71068505888249,
        0.0,
        1.4132212157356329e-05,
        70.7106850588824,
        70.71068196801887,
        0.0,
        -99.99999999999888,
        6.2180876947426356e-06,
        1.3767877038439735e-05,
        0.0,
        0.0,
        500.0,
        0.0,
        1.0
      ],
      "name": "Sun.003"
    },
    {
      "children": [
        24
      ],
      "matrix": [
        1.0,
        0.0,
        0.0,
        0.0,
        0.0,
        2.220446049250313e-16,
        1.0,
        0.0,
        0.0,
        -1.0,
        2.220446049250313e-16,
        0.0,
        0.0,
        0.0,
        0.0,
        1.0
      ],
      "name": "Object_23"
    },
    {
      "name": "Object_24"
    },
    {
      "children": [
        26
      ],
      "matrix": [
        -70.71068500259227,
        -70.71067123471492,
        1.5099579909783704e-05,
        0.0,
        -70.71067123471381,
        70.71068500259388,
        1.2661479343901135e-05,
        0.0,
        -1.9630033419039376e-05,
        -1.723995532295832e-06,
        -99.99999999999804,
        0.0,
        0.0,
        500.0,
        0.0,
        1.0
      ],
      "name": "Sun.004"
    },
    {
      "children": [
        27
      ],
      "matrix": [
        1.0,
        0.0,
        0.0,
        0.0,
        0.0,
        2.220446049250313e-16,
        1.0,
        0.0,
        0.0,
        -1.0,
        2.220446049250313e-16,
        0.0,
        0.0,
        0.0,
        0.0,
        1.0
      ],
      "name": "Object_26"
    },
    {
      "name": "Object_27"
    },
    {
      "children": [
        29
      ],
      "matrix": [
        -3.090861766530395e-06,
        -70.71067235853859,
        -70.71068387877038,
        0.0,
        -1.2802767124231451e-06,
        70.71068387877044,
        -70.71067235853859,
        0.0,
        99.99999999999994,
        -1.2802767124231451e-06,
        -3.090861766530395e-06,
        0.0,
        0.0,
        500.0,
        0.0,
        1.0
      ],
      "name": "Sun.005"
    },
    {
      "children": [
        30
      ],
      "matrix": [
        1.0,
        0.0,
        0.0,
        0.0,
        0.0,
        2.220446049250313e-16,
        1.0,
        0.0,
        0.0,
        -1.0,
        2.220446049250313e-16,
        0.0,
        0.0,
        0.0,
        0.0,
        1.0
      ],
      "name": "Object_29"
    },
    {
      "name": "Object_30"
    }
  ],
  "samplers": [
    {
      "magFilter": 9729,
      "minFilter": 9987,
      "wrapS": 10497,
      "wrapT": 10497
    }
  ],
  "scene": 0,
  "scenes": [
    {
      "name": "Sketchfab_Scene",
      "nodes": [
        0
      ]
    }
  ],
  "textures": [
    {
      "sampler": 0,
      "source": 0
    },
    {
      "sampler": 0,
      "source": 1
    },
    {
      "sampler": 0,
      "source": 2
    },
    {
      "sampler": 0,
      "source": 3
    },
    {
      "sampler": 0,
      "source": 4
    },
    {
      "sampler": 0,
      "source": 5
    },
    {
      "sampler": 0,
      "source": 6
    },
    {
      "sampler": 0,
      "source": 7
    },
    {
      "sampler": 0,
      "source": 8
    },
    {
      "sampler": 0,
      "source": 9
    }
  ]
}
